# xmcd
#
# Track frame offsets: 
#        150
#        14363
#        30631
#        45707
#        57901
#        69848
#        85057
#        101613
#        112650
#        135019
#
# Disc length: 1975 seconds
#
# Revision: 1
# Processed by: cddbd v1.5.1PL0 Copyright (c) Steve Scherf et al.
# Submitted via: ExactAudioCopy v0.95a5
#
DISCID=6c07b50a
DTITLE=Nashville Superpickers - Pickin' On Toby Keith
DYEAR=2003
DGENRE=Country
TTITLE0=I Wanna Talk About Me
TTITLE1=Should've Been A Cowboy
TTITLE2=Who's Your Daddy?
TTITLE3=Courtesy Of The Red, White and Blue (The Angry American)
TTITLE4=I'm Just Talkin' About Tonight
TTITLE5=How Do You Like Me Now?
TTITLE6=I'm So Happy I Can't Stop Crying
TTITLE7=You Ain't Much Fun
TTITLE8=Who's That Man?
TTITLE9=Me and Cindy (Original Composition)
EXTD=
EXTT0=
EXTT1=
EXTT2=
EXTT3=
EXTT4=
EXTT5=
EXTT6=
EXTT7=
EXTT8=
EXTT9=
PLAYORDER=
